# xmcd CD database file
# Copyright (C) 1996 Ti Kan
#
# Track frame offsets:
# 	150
# 	18334
# 	37862
# 	55283
# 	78426
# 	98161
# 	113619
# 	151249
# 	174210
# 	199364
# 	242643
#
# Disc length: 3638 seconds
#
# Revision: 1
# Processed by: cddbd v1.4b41PL1 Copyright (c) Steve Scherf et al.
# Submitted via: DiscPlay 3.3.1
#
DISCID=7b0e340b
DTITLE=Craig Erickson - Force Majeure
DYEAR=1900
DGENRE=
TTITLE0=Electricity
TTITLE1=Everywhere
TTITLE2=Cyberblues
TTITLE3=Strongman Down
TTITLE4=Wild Cat
TTITLE5=Give Me some Money
TTITLE6=Understanding
TTITLE7=Nothing
TTITLE8=Kick It
TTITLE9=Train Jam (Until Then)
TTITLE10=Streets of Dreams
EXTD=
EXTT0=
EXTT1=
EXTT2=
EXTT3=
EXTT4=
EXTT5=
EXTT6=
EXTT7=
EXTT8=
EXTT9=
EXTT10=
PLAYORDER=
